<?xml version="1.0" standalone="no"?>
<!DOCTYPE svg PUBLIC "-//W3C//DTD SVG 20010904//EN"
 "http://www.w3.org/TR/2001/REC-SVG-20010904/DTD/svg10.dtd">
<svg version="1.0" xmlns="http://www.w3.org/2000/svg"
 width="256.000000pt" height="256.000000pt" viewBox="0 0 256.000000 256.000000"
 preserveAspectRatio="xMidYMid meet">

<g transform="translate(0.000000,256.000000) scale(0.100000,-0.100000)"
fill="#000000" stroke="none">
<path d="M930 2461 c-157 -53 -428 -146 -602 -205 -175 -60 -318 -113 -318
-118 0 -22 82 -193 135 -283 85 -145 197 -288 328 -418 65 -65 121 -117 123
-114 3 2 -25 133 -61 291 -59 259 -71 326 -62 326 2 0 183 65 402 145 570 208
656 228 962 229 l181 1 -360 122 c-241 83 -374 123 -402 122 -25 0 -153 -38
-326 -98z"/>
<path d="M1740 2209 c-108 -13 -250 -40 -250 -47 0 -4 136 -56 301 -116 l301
-109 -5 -41 c-10 -73 -175 -778 -207 -886 -44 -149 -119 -335 -194 -483 -36
-70 -63 -127 -61 -127 9 0 568 617 581 642 8 15 88 263 178 550 91 288 167
530 171 540 5 13 -9 20 -86 38 -51 12 -140 28 -198 36 -115 15 -423 17 -531 3z"/>
<path d="M140 1665 c5 -17 52 -166 105 -332 52 -167 101 -315 109 -330 8 -16
77 -96 153 -178 76 -83 275 -300 442 -483 167 -183 307 -332 312 -332 12 0
156 219 224 339 32 58 83 159 112 225 56 124 157 409 151 426 -2 5 -102 -68
-223 -162 -288 -223 -259 -206 -298 -178 -170 124 -671 523 -741 590 -99 95
-227 249 -294 355 -55 86 -65 98 -52 60z"/>
</g>
</svg>
